<svg width="1095" height="1112" viewBox="0 0 1095 1112" fill="none" xmlns="http://www.w3.org/2000/svg">
<path d="M852.547 189.943C899.32 228.06 937.816 270.512 966.703 323.23C970.04 329.318 977.526 341.39 979.127 347.795C986.644 360.605 995.761 384.876 1000.7 399.184C1031.07 487.356 1034.06 582.302 1009.29 672.123C1000.97 701.919 988.209 736.51 973.166 763.86C940.406 747.542 904.576 727.043 872.237 709.314L716.121 623.978C680.538 604.41 644.827 585.06 608.993 565.931C586.933 554.11 539.61 532.07 525.981 513.394C501.136 491.639 496.016 449.295 505.116 419.374C511.116 399.524 522.538 381.637 538.161 367.622C548.269 358.705 560.981 352.016 572.67 345.079C588.547 335.632 604.504 326.315 620.54 317.128C697.208 273.587 774.552 231.186 852.547 189.943Z" fill="#4D4EF5"/>
<path d="M852.547 189.943C899.32 228.06 937.816 270.512 966.703 323.23C970.04 329.318 977.526 341.39 979.127 347.795C971.939 345.116 960.058 304.825 952.152 305.682C945.262 317.353 934.467 317.738 930.312 323.067C913.077 345.174 896.751 346.218 870.791 353.608C865.106 355.226 854.494 361.934 848.245 364.133C831.001 371.445 813.374 379.932 795.446 385.381C781.73 389.518 766.004 387.874 753.535 395.694C746.203 395.894 728.597 393.83 725.054 396.602C723.926 400.281 724.097 402.41 721.082 403.863C708.469 409.94 705.598 411.934 693.844 407.728C693.052 407.445 670.134 418.472 667.629 419.332C661.734 420.713 653.7 418.861 647.957 420.539C622.319 428.031 592.062 456.027 564.952 449.124C558.167 447.395 555.456 443.052 548.416 446.659C543.113 449.375 534.383 447.067 528.805 452.116C520.258 458.19 518.607 467.538 508.313 471.621L506.724 471.107C505.732 467.83 506.133 465.869 503.947 463.263C498.941 476.268 525.443 507.044 525.981 513.394C501.136 491.639 496.016 449.295 505.116 419.374C511.116 399.524 522.538 381.637 538.161 367.622C548.269 358.705 560.981 352.016 572.67 345.079C588.547 335.632 604.504 326.315 620.54 317.128C697.208 273.587 774.552 231.186 852.547 189.943Z" fill="#5248F0"/>
<path d="M534.277 456.602C536.414 457.561 538.837 457.067 542.609 457.992L543.196 459.455L541.733 459.64C538.12 459.5 535.314 460.579 532.863 458.971L534.277 456.602Z" fill="#5248F0"/>
<path d="M539.501 83.3638C622.754 79.9494 705.22 102.322 778.177 140.459L601.022 232.545C562.05 252.768 524.943 271.482 488.181 295.406C388.584 360.219 338.243 522.188 446.116 602.124C435.651 597.598 417.523 587.332 406.848 581.718C367.96 559.425 325.195 537.231 285.533 515.422L90.8076 407.385C157.827 212.43 329.933 92.1067 539.501 83.3638Z" fill="url(#paint0_linear_17_12)"/>
<path d="M80.9029 442.804C104.661 454.662 133.921 471.914 157.475 485.01L335.398 585.287L452.773 650.269C471.798 660.781 492.609 671.57 510.818 682.858C537.549 700.788 553.492 734.032 545.489 765.179C536.179 801.409 514.988 813.021 484.96 830.964L442.442 856.488C390.544 887.393 338.335 917.796 285.821 947.692C227.521 909.534 178.174 859.777 141.027 801.696C71.1444 694.031 52.225 566.39 80.9029 442.804Z" fill="url(#paint1_linear_17_12)"/>
<path d="M622.07 623.634C626.018 624.867 628.98 627.008 632.498 629.073C653.398 641.349 673.996 654.245 694.996 666.348C778.213 715.012 861.859 762.976 945.925 810.234C876.596 915.198 767.619 989.318 642.606 1016.54C549.747 1034.63 465.799 1027.82 377.399 994.473L521.262 911.44C542.742 898.928 582.174 877.015 601.456 862.844C614.189 853.563 625.71 842.796 635.759 830.786C687.045 768.889 689.113 675.574 622.07 623.634Z" fill="url(#paint2_linear_17_12)"/>
<defs>
<linearGradient id="paint0_linear_17_12" x1="534.63" y1="566.969" x2="385.748" y2="112.511" gradientUnits="userSpaceOnUse">
<stop stop-color="#6035E8"/>
<stop offset="1" stop-color="#954CF2"/>
</linearGradient>
<linearGradient id="paint1_linear_17_12" x1="370.582" y1="924.387" x2="245.854" y2="406.267" gradientUnits="userSpaceOnUse">
<stop stop-color="#2D2FD8"/>
<stop offset="1" stop-color="#8244F5"/>
</linearGradient>
<linearGradient id="paint2_linear_17_12" x1="682.877" y1="1006.93" x2="612.319" y2="634.868" gradientUnits="userSpaceOnUse">
<stop stop-color="#00A16C"/>
<stop offset="1" stop-color="#33CB84"/>
</linearGradient>
</defs>
</svg>
