<svg width="1095" height="1112" viewBox="0 0 1095 1112" fill="none" xmlns="http://www.w3.org/2000/svg">
<path d="M199.683 2.47158C217.042 0.143828 272.745 1.38353 293.074 1.37907L489.68 1.38806L757.285 1.39704C841.904 1.3569 927.326 -10.3044 999.864 39.8672C1106.65 113.722 1094.18 217.655 1094.23 330.747L1094.23 585.395L1094.13 800.32C1094.1 835.16 1095.96 873.394 1093.12 907.905C1084.03 1018.06 1010.63 1091.53 903.335 1109.88C852.992 1112.89 792.811 1111.48 741.673 1111.43L480.466 1111.31H299.499C222.948 1111.27 154.198 1118.08 89.2944 1069.69C42.328 1034.93 11.5649 982.91 3.96662 925.43C-1.62258 884.114 0.323251 816.057 0.345824 772.931L0.395562 524.004L0.449708 310.141C0.544517 228.651 -6.44876 151.631 48.7479 83.0734C89.3125 32.6878 135.62 10.3199 199.683 2.47158Z" fill="#0F172A"/>
<path d="M852.547 190.138C899.32 228.255 937.816 270.707 966.703 323.425C970.04 329.514 977.526 341.585 979.127 347.991C986.644 360.8 995.761 385.071 1000.7 399.38C1031.07 487.551 1034.06 582.497 1009.29 672.318C1000.97 702.115 988.209 736.706 973.166 764.056C940.406 747.737 904.576 727.238 872.237 709.509L716.121 624.173C680.538 604.605 644.827 585.255 608.993 566.126C586.933 554.306 539.61 532.266 525.981 513.59C501.136 491.834 496.016 449.49 505.116 419.569C511.116 399.719 522.538 381.832 538.161 367.817C548.269 358.9 560.981 352.212 572.67 345.275C588.547 335.828 604.504 326.51 620.54 317.323C697.208 273.782 774.552 231.381 852.547 190.138Z" fill="#4D4EF5"/>
<path d="M852.547 190.138C899.32 228.255 937.816 270.707 966.703 323.425C970.04 329.514 977.526 341.585 979.127 347.991C971.939 345.311 960.058 305.021 952.152 305.878C945.262 317.548 934.467 317.933 930.312 323.262C913.077 345.369 896.751 346.413 870.791 353.804C865.106 355.422 854.494 362.129 848.245 364.328C831.001 371.64 813.374 380.127 795.446 385.577C781.73 389.713 766.004 388.069 753.535 395.889C746.203 396.09 728.597 394.026 725.054 396.797C723.926 400.476 724.097 402.606 721.082 404.058C708.469 410.135 705.598 412.13 693.844 407.923C693.052 407.64 670.134 418.667 667.629 419.527C661.734 420.908 653.7 419.056 647.957 420.734C622.319 428.226 592.062 456.223 564.952 449.319C558.167 447.59 555.456 443.247 548.416 446.854C543.113 449.57 534.383 447.262 528.805 452.311C520.258 458.385 518.607 467.733 508.313 471.816L506.724 471.302C505.732 468.025 506.133 466.065 503.947 463.459C498.941 476.463 525.443 507.239 525.981 513.59C501.136 491.834 496.016 449.49 505.116 419.569C511.116 399.719 522.538 381.832 538.161 367.817C548.269 358.9 560.981 352.212 572.67 345.275C588.547 335.828 604.504 326.51 620.54 317.323C697.208 273.782 774.552 231.381 852.547 190.138Z" fill="#5248F0"/>
<path d="M534.277 456.798C536.414 457.756 538.837 457.263 542.609 458.188L543.196 459.65L541.733 459.835C538.12 459.695 535.314 460.775 532.863 459.167L534.277 456.798Z" fill="#5248F0"/>
<path d="M539.501 83.5591C622.754 80.1447 705.22 102.517 778.177 140.655L601.022 232.741C562.05 252.964 524.943 271.677 488.181 295.601C388.584 360.414 338.243 522.383 446.116 602.319C435.651 597.793 417.523 587.527 406.848 581.913C367.96 559.62 325.195 537.426 285.533 515.617L90.8076 407.58C157.827 212.625 329.933 92.302 539.501 83.5591Z" fill="url(#paint0_linear_9_31)"/>
<path d="M80.9029 442.999C104.661 454.857 133.921 472.11 157.475 485.205L335.398 585.482L452.773 650.464C471.798 660.976 492.609 671.765 510.818 683.054C537.549 700.983 553.492 734.228 545.489 765.375C536.179 801.604 514.988 813.216 484.96 831.159L442.442 856.683C390.544 887.588 338.335 917.991 285.821 947.888C227.521 909.73 178.174 859.972 141.027 801.892C71.1444 694.226 52.225 566.585 80.9029 442.999Z" fill="url(#paint1_linear_9_31)"/>
<path d="M622.07 623.829C626.018 625.062 628.98 627.203 632.498 629.268C653.398 641.545 673.996 654.44 694.996 666.543C778.213 715.207 861.859 763.171 945.925 810.429C876.596 915.393 767.619 989.513 642.606 1016.74C549.747 1034.82 465.799 1028.02 377.399 994.668L521.262 911.635C542.742 899.124 582.174 877.21 601.456 863.04C614.189 853.758 625.71 842.991 635.759 830.982C687.045 769.084 689.113 675.77 622.07 623.829Z" fill="url(#paint2_linear_9_31)"/>
<defs>
<linearGradient id="paint0_linear_9_31" x1="534.63" y1="567.164" x2="385.748" y2="112.706" gradientUnits="userSpaceOnUse">
<stop stop-color="#6035E8"/>
<stop offset="1" stop-color="#954CF2"/>
</linearGradient>
<linearGradient id="paint1_linear_9_31" x1="370.582" y1="924.582" x2="245.854" y2="406.462" gradientUnits="userSpaceOnUse">
<stop stop-color="#2D2FD8"/>
<stop offset="1" stop-color="#8244F5"/>
</linearGradient>
<linearGradient id="paint2_linear_9_31" x1="682.877" y1="1007.12" x2="612.319" y2="635.063" gradientUnits="userSpaceOnUse">
<stop stop-color="#00A16C"/>
<stop offset="1" stop-color="#33CB84"/>
</linearGradient>
</defs>
</svg>
