<svg width="1095" height="1112" viewBox="0 0 1095 1112" fill="none" xmlns="http://www.w3.org/2000/svg">
<path d="M199.683 2.27627C217.042 -0.051485 272.745 1.18822 293.074 1.18376L489.68 1.19274L757.285 1.20172C841.904 1.16159 927.326 -10.4997 999.864 39.6719C1106.65 113.527 1094.18 217.46 1094.23 330.552L1094.23 585.2L1094.13 800.124C1094.1 834.965 1095.96 873.199 1093.12 907.709C1084.03 1017.87 1010.63 1091.33 903.335 1109.69C852.992 1112.69 792.811 1111.28 741.673 1111.23L480.466 1111.12H299.499C222.948 1111.07 154.198 1117.88 89.2944 1069.5C42.328 1034.73 11.5649 982.715 3.96662 925.234C-1.62258 883.919 0.323251 815.861 0.345824 772.735L0.395562 523.809L0.449708 309.945C0.544517 228.456 -6.44876 151.435 48.7479 82.8781C89.3125 32.4925 135.62 10.1246 199.683 2.27627Z" fill="white"/>
<path d="M873.735 158.64C923.738 200.019 964.892 246.103 995.773 303.331C999.341 309.94 1007.34 323.045 1009.05 329.998C1017.09 343.903 1026.84 370.251 1032.11 385.783C1064.58 481.498 1067.78 584.567 1041.3 682.073C1032.41 714.418 1018.76 751.968 1002.68 781.659C967.66 763.944 929.356 741.691 894.785 722.445L727.89 629.808C689.849 608.567 651.673 587.561 613.365 566.795C589.782 553.964 539.191 530.038 524.621 509.764C498.061 486.148 492.588 440.181 502.316 407.7C508.729 386.152 520.94 366.735 537.643 351.521C548.448 341.841 562.038 334.58 574.534 327.05C591.508 316.794 608.566 306.68 625.71 296.707C707.67 249.441 790.355 203.412 873.735 158.64Z" fill="#4D4EF5"/>
<path d="M873.735 158.64C923.738 200.019 964.892 246.103 995.773 303.331C999.341 309.94 1007.34 323.045 1009.05 329.998C1001.37 327.089 988.669 283.352 980.218 284.282C972.851 296.951 961.311 297.369 956.869 303.154C938.444 327.152 920.991 328.286 893.239 336.308C887.162 338.065 875.816 345.346 869.136 347.733C850.702 355.671 831.858 364.884 812.692 370.8C798.029 375.29 781.216 373.505 767.887 381.994C760.049 382.212 741.227 379.971 737.439 382.98C736.233 386.974 736.416 389.285 733.193 390.862C719.709 397.459 716.64 399.624 704.074 395.058C703.228 394.75 678.727 406.721 676.05 407.654C669.748 409.154 661.159 407.143 655.019 408.965C627.611 417.097 595.265 447.489 566.283 439.995C559.03 438.119 556.131 433.404 548.606 437.319C542.936 440.268 533.603 437.762 527.64 443.243C518.504 449.837 516.738 459.985 505.734 464.417L504.035 463.859C502.974 460.302 503.402 458.173 501.066 455.345C495.714 469.461 524.046 502.871 524.621 509.764C498.061 486.148 492.588 440.181 502.316 407.7C508.729 386.152 520.94 366.735 537.643 351.521C548.448 341.841 562.038 334.58 574.534 327.05C591.508 316.794 608.566 306.68 625.71 296.707C707.67 249.441 790.355 203.412 873.735 158.64Z" fill="#5248F0"/>
<path d="M533.49 448.114C535.775 449.154 538.364 448.618 542.397 449.623L543.025 451.21L541.461 451.411C537.598 451.259 534.599 452.431 531.978 450.685L533.49 448.114Z" fill="#5248F0"/>
<path d="M539.075 42.9434C628.076 39.237 716.235 63.5233 794.23 104.924L604.843 204.888C563.181 226.841 523.512 247.156 484.211 273.126C377.738 343.484 323.921 519.31 439.242 606.085C428.055 601.172 408.675 590.027 397.263 583.933C355.689 559.733 309.972 535.641 267.572 511.966L59.4014 394.686C131.048 183.052 315.037 52.4343 539.075 42.9434Z" fill="url(#paint0_linear_4_120)"/>
<path d="M48.8129 433.135C74.211 446.007 105.492 464.736 130.672 478.952L320.879 587.807L446.359 658.349C466.698 669.76 488.945 681.472 508.411 693.727C536.988 713.19 554.031 749.279 545.476 783.09C535.523 822.419 512.869 835.025 480.768 854.503L435.314 882.211C379.834 915.759 324.02 948.764 267.879 981.218C205.554 939.795 152.8 885.781 113.088 822.731C38.3806 705.855 18.1549 567.294 48.8129 433.135Z" fill="url(#paint1_linear_4_120)"/>
<path d="M627.345 629.435C631.566 630.773 634.732 633.098 638.492 635.34C660.836 648.666 682.856 662.665 705.306 675.804C794.268 728.631 883.69 780.698 973.56 831.999C899.444 945.943 782.943 1026.4 649.299 1055.96C550.029 1075.59 460.284 1068.21 365.781 1032L519.576 941.864C542.539 928.282 584.694 904.493 605.307 889.111C618.92 879.035 631.236 867.347 641.979 854.31C696.806 787.117 699.016 685.819 627.345 629.435Z" fill="url(#paint2_linear_4_120)"/>
<defs>
<linearGradient id="paint0_linear_4_120" x1="533.867" y1="567.922" x2="370.246" y2="76.0675" gradientUnits="userSpaceOnUse">
<stop stop-color="#6035E8"/>
<stop offset="1" stop-color="#954CF2"/>
</linearGradient>
<linearGradient id="paint1_linear_4_120" x1="358.493" y1="955.919" x2="221.237" y2="394.429" gradientUnits="userSpaceOnUse">
<stop stop-color="#2D2FD8"/>
<stop offset="1" stop-color="#8244F5"/>
</linearGradient>
<linearGradient id="paint2_linear_4_120" x1="692.35" y1="1045.52" x2="614.657" y2="642.066" gradientUnits="userSpaceOnUse">
<stop stop-color="#00A16C"/>
<stop offset="1" stop-color="#33CB84"/>
</linearGradient>
</defs>
</svg>
